<svg width="42" height="42" viewBox="0 0 42 42" fill="none" xmlns="http://www.w3.org/2000/svg">
<path d="M38.8689 20.7289C38.8689 30.7408 30.7523 38.8664 20.7313 38.8664C10.7103 38.8664 2.59375 30.7408 2.59375 20.7289C2.59375 10.7079 10.7103 2.59131 20.7313 2.59131C30.7523 2.59131 38.8689 10.7079 38.8689 20.7289Z" fill="#283544"/>
<path d="M29.2265 16.1391C29.1275 16.1968 26.7714 17.4153 26.7714 20.117C26.8825 23.1981 29.7447 24.2786 29.7938 24.2786C29.7447 24.3364 29.3617 25.7506 28.2271 27.233C27.3266 28.51 26.3272 29.7975 24.8096 29.7975C23.366 29.7975 22.8478 28.9464 21.1821 28.9464C19.3933 28.9464 18.8871 29.7975 17.5175 29.7975C15.9999 29.7975 14.9264 28.441 13.9769 27.176C12.7433 25.5204 11.6948 22.9222 11.6578 20.4275C11.6329 19.1055 11.9049 17.806 12.5953 16.7022C13.5697 15.1613 15.3095 14.1153 17.2093 14.0808C18.665 14.0351 19.9606 15.0121 20.8489 15.0121C21.7003 15.0121 23.292 14.0808 25.0928 14.0808C25.8702 14.0815 27.943 14.2997 29.2265 16.1391ZM20.7258 13.8168C20.4667 12.6096 21.1821 11.4024 21.8483 10.6323C22.6997 9.70096 24.0443 9.06885 25.2039 9.06885C25.2779 10.2761 24.8088 11.4601 23.9703 12.3224C23.2179 13.2537 21.9224 13.9548 20.7258 13.8168Z" fill="white"/>
</svg>
