<svg width="42" height="42" viewBox="0 0 42 42" fill="none" xmlns="http://www.w3.org/2000/svg">
<path d="M38.869 21.1314C38.869 19.6401 38.7455 18.5519 38.4782 17.4233H21.1016V24.1543H31.3013C31.0957 25.8271 29.9853 28.3462 27.5175 30.0389L27.4829 30.2643L32.9771 34.4354L33.3578 34.4726C36.8536 31.3086 38.869 26.6533 38.869 21.1314Z" fill="#4285F4"/>
<path d="M21.096 38.8664C26.093 38.8664 30.288 37.2541 33.3522 34.4731L27.512 30.0393C25.9491 31.1074 23.8516 31.8531 21.096 31.8531C16.2018 31.8531 12.0479 28.6891 10.5672 24.3159L10.3501 24.334L4.63721 28.6669L4.5625 28.8704C7.60595 34.7954 13.8574 38.8664 21.096 38.8664Z" fill="#34A853"/>
<path d="M10.5725 24.3158C10.1818 23.1873 9.95571 21.978 9.95571 20.7286C9.95571 19.479 10.1818 18.2699 10.552 17.1414L10.5416 16.901L4.75712 12.4985L4.56786 12.5868C3.3135 15.0454 2.59375 17.8064 2.59375 20.7286C2.59375 23.6507 3.3135 26.4116 4.56786 28.8703L10.5725 24.3158Z" fill="#FBBC05"/>
<path d="M21.0961 9.60445C24.5714 9.60445 26.9157 11.0756 28.2524 12.305L33.4757 7.30707C30.2678 4.38492 26.0932 2.59131 21.0961 2.59131C13.8575 2.59131 7.60597 6.66215 4.5625 12.587L10.5466 17.1416C12.048 12.7685 16.2019 9.60445 21.0961 9.60445Z" fill="#EB4335"/>
</svg>
